<svg xmlns="http://www.w3.org/2000/svg" id="Layer_1" data-name="Layer 1" viewBox="0 0 144 144">
  <path d="M51.25 14.65a4.16 4.16 0 11-4.16-4.17 4.17 4.17 0 014.16 4.17zM61.1 24.5a4.17 4.17 0 11-4.16-4.17 4.17 4.17 0 014.17 4.17zM71.16 102.63A4.16 4.16 0 1167 98.46a4.16 4.16 0 014.16 4.17zM51.25 44.01a4.16 4.16 0 11-4.16-4.16A4.16 4.16 0 0151.25 44zM61.1 53.86a4.17 4.17 0 11-4.16-4.16 4.17 4.17 0 014.17 4.16z" class="cls-2"/>
  <path d="M56.84 30.18a4.14 4.14 0 00-2.34.71l-3.95-3.95a4.16 4.16 0 10-1.12 1.12L53.38 32a4.16 4.16 0 103.45-1.83z" class="cls-2"/>
  <path d="M56.84 39.92a4.13 4.13 0 00-2.34.72l-3.95-3.96a4.16 4.16 0 10-1.12 1.12l3.95 3.95a4.17 4.17 0 103.45-1.83zM51.25 63.52a4.16 4.16 0 11-4.16-4.16 4.17 4.17 0 014.16 4.16zM61.1 73.38a4.17 4.17 0 11-4.16-4.17 4.17 4.17 0 014.17 4.17z" class="cls-2"/>
  <path d="M56.84 59.44a4.13 4.13 0 00-2.34.71l-3.95-3.95a4.16 4.16 0 10-1.12 1.11l3.95 3.96a4.16 4.16 0 103.45-1.83zM56.84 98.46a4.14 4.14 0 00-2.34.72l-3.95-3.96a4.15 4.15 0 10-1.12 1.12l3.95 3.95a4.17 4.17 0 103.45-1.83zM51.25 83.04a4.16 4.16 0 11-4.16-4.17 4.17 4.17 0 014.16 4.17z" class="cls-2"/>
  <path d="M61.1 92.89a4.17 4.17 0 11-4.16-4.17 4.17 4.17 0 014.17 4.17zM91.07 102.63a4.16 4.16 0 11-4.17-4.17 4.17 4.17 0 014.17 4.17zM76.74 98.46a4.14 4.14 0 00-2.33.72l-3.96-3.96a4.11 4.11 0 00.71-2.33 4.16 4.16 0 10-1.83 3.45l3.96 3.95a4.16 4.16 0 103.45-1.83z" class="cls-2"/>
  <path d="M81 92.89a4.16 4.16 0 11-4.16-4.17 4.16 4.16 0 014.17 4.17zM91.07 63.6a4.16 4.16 0 11-4.17-4.16 4.17 4.17 0 014.17 4.16zM76.74 59.44a4.13 4.13 0 00-2.33.71l-3.96-3.95a4.17 4.17 0 10-1.12 1.11l3.96 3.96a4.16 4.16 0 103.45-1.83z" class="cls-2"/>
  <path d="M81 53.86a4.16 4.16 0 11-4.16-4.16 4.16 4.16 0 014.17 4.16zM96.53 59.44a4.13 4.13 0 00-2.33.71l-3.96-3.95a4.16 4.16 0 10-1.1 1.11l3.95 3.96a4.12 4.12 0 00-.72 2.33 4.16 4.16 0 104.16-4.16z" class="cls-2"/>
  <path d="M100.8 53.86a4.17 4.17 0 11-4.16-4.16 4.17 4.17 0 014.16 4.16zM96.64 98.46a4.14 4.14 0 00-2.33.72l-3.95-3.96a4.17 4.17 0 10-1.12 1.12l3.95 3.95a4.17 4.17 0 103.45-1.83z" class="cls-2"/>
  <path d="M100.91 92.89a4.17 4.17 0 11-4.16-4.17 4.17 4.17 0 014.16 4.17zM100.91 83.11a4.17 4.17 0 11-4.16-4.16 4.17 4.17 0 014.16 4.16z" class="cls-2"/>
  <path d="M106.49 78.95a4.13 4.13 0 00-2.34.71l-3.95-3.95a4.16 4.16 0 10-1.12 1.12l3.96 3.95a4.17 4.17 0 103.45-1.83z" class="cls-2"/>
  <path d="M110.75 73.38a4.16 4.16 0 11-4.16-4.17 4.16 4.16 0 014.16 4.17zM110.75 92.89a4.16 4.16 0 11-4.16-4.17 4.16 4.16 0 014.16 4.17zM41.51 53.86a4.17 4.17 0 11-4.16-4.16 4.16 4.16 0 014.16 4.16zM110.75 63.6a4.16 4.16 0 11-4.16-4.16 4.17 4.17 0 014.16 4.16zM56.84 78.95a4.13 4.13 0 00-2.34.71l-3.95-3.95a4.16 4.16 0 10-1.12 1.12l3.95 3.95a4.17 4.17 0 103.45-1.83zM51.25 102.63a4.17 4.17 0 11-4.16-4.17 4.16 4.16 0 014.16 4.17zM41.51 102.63a4.17 4.17 0 11-4.16-4.17 4.16 4.16 0 014.16 4.17z" class="cls-2"/>
  <text font-family="Syncopate-Regular,Syncopate" font-size="17.11" transform="matrix(.9673 0 0 1 31.48 123.68)">
    BENDIGI
  </text>
  <text font-family="Syncopate-Bold,Syncopate" font-size="5.85" font-weight="700" transform="matrix(.9673 0 0 1 33.24 133.32)">
    technologies inc.
  </text>
</svg>