<?xml version="1.0" encoding="iso-8859-1"?>
<!-- Generator: Adobe Illustrator 19.0.0, SVG Export Plug-In . SVG Version: 6.00 Build 0)  -->
<svg version="1.1" id="Capa_1" xmlns="http://www.w3.org/2000/svg" xmlns:xlink="http://www.w3.org/1999/xlink" x="0px" y="0px"
	 viewBox="0 0 512 512" style="enable-background:new 0 0 512 512;" xml:space="preserve">
<path style="fill:#92582B;" d="M232.727,453.818V23.273C232.727,10.473,243.2,0,256,0l0,0c12.8,0,23.273,10.473,23.273,23.273
	v430.545H232.727z"/>
<g>
	<path style="fill:#7C4B22;" d="M151.273,500.364c0,5.818,5.818,11.636,11.636,11.636h186.182c5.818,0,11.636-5.818,11.636-11.636
		l0,0c0-5.818-4.655-13.964-10.473-16.291c0,0-64-30.255-70.982-30.255h-46.545c-5.818,0-70.982,30.255-70.982,30.255
		C155.927,486.4,151.273,494.545,151.273,500.364L151.273,500.364z"/>
	<path style="fill:#7C4B22;" d="M256,23.273v139.636h-23.273v11.636c12.8,0,23.273,10.473,23.273,23.273v104.727h-23.273v11.636
		c12.8,0,23.273,10.473,23.273,23.273v116.364h23.273V23.273c0-6.982-4.655-11.636-11.636-11.636l0,0
		C260.655,11.636,256,16.291,256,23.273z"/>
</g>
<path style="fill:#6E421B;" d="M162.909,512h186.182c5.818,0,11.636-5.818,11.636-11.636l0,0c0-5.818-4.655-13.964-10.473-16.291
	c0,0-64-30.255-70.982-30.255H256l15.127,30.255c3.491,8.145-2.327,16.291-10.473,16.291H151.273
	C151.273,506.182,157.091,512,162.909,512z"/>
<g>
	<path style="fill:#DA8C36;" d="M302.545,314.182H55.855c-5.818,0-11.636-2.327-16.291-6.982L8.145,275.782
		C3.491,271.127,0,262.982,0,256l0,0c0-6.982,3.491-15.127,8.145-19.782L39.564,204.8c4.655-4.655,10.473-6.982,16.291-6.982
		h246.691c12.8,0,23.273,10.473,23.273,23.273v69.818C325.818,303.709,315.345,314.182,302.545,314.182z"/>
	<path style="fill:#DA8C36;" d="M209.455,46.545h246.691c5.818,0,11.636,2.327,16.291,6.982l31.418,31.418
		c4.655,4.655,8.145,12.8,8.145,19.782l0,0c0,6.982-3.491,15.127-8.145,19.782l-31.418,31.418
		c-4.655,4.655-10.473,6.982-16.291,6.982H209.455c-12.8,0-23.273-10.473-23.273-23.273V69.818
		C186.182,57.018,196.655,46.545,209.455,46.545z"/>
</g>
<path style="fill:#C97629;" d="M302.545,221.091v23.273c0,6.982-4.655,11.636-11.636,11.636H0c0,6.982,3.491,15.127,8.145,19.782
	L39.564,307.2c4.655,4.655,10.473,6.982,16.291,6.982h246.691c12.8,0,23.273-10.473,23.273-23.273v-69.818l0,0
	C325.818,205.964,302.545,207.127,302.545,221.091z"/>
<circle style="fill:#7C4B22;" cx="256" cy="256" r="11.636"/>
<path style="fill:#C97629;" d="M209.455,162.909h246.691c5.818,0,11.636-2.327,16.291-6.982l31.418-31.418
	c4.655-4.655,8.145-12.8,8.145-19.782H221.091c-6.982,0-11.636,4.655-11.636,11.636V162.909z"/>
<circle style="fill:#7C4B22;" cx="256" cy="104.727" r="11.636"/>
<g>
	<path style="fill:#E7A54C;" d="M209.455,58.182H256c3.491,0,5.818,2.327,5.818,5.818l0,0c0,3.491-2.327,5.818-5.818,5.818h-46.545
		c-3.491,0-5.818-2.327-5.818-5.818l0,0C203.636,60.509,205.964,58.182,209.455,58.182z"/>
	<circle style="fill:#E7A54C;" cx="279.273" cy="64" r="5.818"/>
	<path style="fill:#E7A54C;" d="M64,209.455h58.182c3.491,0,5.818,2.327,5.818,5.818l0,0c0,3.491-2.327,5.818-5.818,5.818H64
		c-3.491,0-5.818-2.327-5.818-5.818l0,0C58.182,211.782,60.509,209.455,64,209.455z"/>
</g>
<g>
</g>
<g>
</g>
<g>
</g>
<g>
</g>
<g>
</g>
<g>
</g>
<g>
</g>
<g>
</g>
<g>
</g>
<g>
</g>
<g>
</g>
<g>
</g>
<g>
</g>
<g>
</g>
<g>
</g>
</svg>
