<?xml version="1.0" encoding="iso-8859-1"?>
<!-- Generator: Adobe Illustrator 19.0.0, SVG Export Plug-In . SVG Version: 6.00 Build 0)  -->
<svg version="1.1" id="Capa_1" xmlns="http://www.w3.org/2000/svg" xmlns:xlink="http://www.w3.org/1999/xlink" x="0px" y="0px"
	 viewBox="0 0 512 512" style="enable-background:new 0 0 512 512;" xml:space="preserve">
<path style="fill:#C7EAFB;" d="M139.636,442.182v-75.636c0-11.636,4.655-22.109,11.636-30.255l57.018-65.164
	c8.145-9.309,8.145-22.109,0-30.255l-57.018-65.164c-6.982-8.145-11.636-19.782-11.636-30.255V69.818h232.727v75.636
	c0,11.636-4.655,22.109-11.636,30.255l-57.018,65.164c-8.145,9.309-8.145,22.109,0,30.255l57.018,65.164
	c6.982,8.145,11.636,19.782,11.636,30.255v75.636H139.636z"/>
<g>
	<path style="fill:#F7B84E;" d="M221.091,337.455c-6.982,0-11.636,4.655-11.636,11.636l0,0c0,6.982,4.655,11.636,11.636,11.636
		c6.982,0,11.636-4.655,11.636-11.636l0,0C232.727,342.109,228.073,337.455,221.091,337.455z M221.091,343.273L221.091,343.273
		L221.091,343.273L221.091,343.273z"/>
	<path style="fill:#F7B84E;" d="M314.182,372.364c-6.982,0-11.636,4.655-11.636,11.636l0,0c0,6.982,4.655,11.636,11.636,11.636
		s11.636-4.655,11.636-11.636l0,0C325.818,377.018,321.164,372.364,314.182,372.364z M314.182,378.182L314.182,378.182
		L314.182,378.182L314.182,378.182z"/>
	<path style="fill:#F7B84E;" d="M285.091,372.364c-3.491,0-5.818,2.327-5.818,5.818l0,0c0,3.491,2.327,5.818,5.818,5.818
		s5.818-2.327,5.818-5.818l0,0C290.909,374.691,288.582,372.364,285.091,372.364z M285.091,375.855L285.091,375.855L285.091,375.855
		C285.091,374.691,285.091,375.855,285.091,375.855z"/>
	<path style="fill:#F7B84E;" d="M192,384c-3.491,0-5.818,2.327-5.818,5.818l0,0c0,3.491,2.327,5.818,5.818,5.818
		c3.491,0,5.818-2.327,5.818-5.818l0,0C197.818,386.327,195.491,384,192,384z M192,387.491L192,387.491L192,387.491
		C192,386.327,192,387.491,192,387.491z"/>
	<path style="fill:#F7B84E;" d="M168.727,395.636c-3.491,0-5.818,2.327-5.818,5.818l0,0c0,3.491,2.327,5.818,5.818,5.818
		s5.818-2.327,5.818-5.818l0,0C174.545,397.964,172.218,395.636,168.727,395.636z M168.727,399.127L168.727,399.127L168.727,399.127
		C168.727,397.964,168.727,399.127,168.727,399.127z"/>
</g>
<path style="fill:#EFF9FE;" d="M174.545,356.073c-2.327,0-4.655-1.164-6.982-2.327c-4.655-3.491-5.818-11.636-2.327-16.291
	l34.909-41.891c3.491-4.655,11.636-5.818,16.291-2.327s5.818,11.636,2.327,16.291l-34.909,41.891
	C181.527,354.909,178.036,356.073,174.545,356.073z"/>
<g>
	<path style="fill:#C97629;" d="M418.909,453.818c-6.982,0-11.636-4.655-11.636-11.636V69.818c0-6.982,4.655-11.636,11.636-11.636
		c6.982,0,11.636,4.655,11.636,11.636v372.364C430.545,449.164,425.891,453.818,418.909,453.818z"/>
	<path style="fill:#C97629;" d="M93.091,453.818c-6.982,0-11.636-4.655-11.636-11.636V69.818c0-6.982,4.655-11.636,11.636-11.636
		s11.636,4.655,11.636,11.636v372.364C104.727,449.164,100.073,453.818,93.091,453.818z"/>
</g>
<g>
	<path style="fill:#DA8C36;" d="M67.491,451.491l-6.982,25.6c-1.164,8.145-2.327,15.127-2.327,23.273l0,0
		c0,6.982,4.655,11.636,11.636,11.636h372.364c6.982,0,11.636-4.655,11.636-11.636l0,0c0-8.145-1.164-15.127-2.327-23.273
		l-6.982-26.764c-1.164-4.655-5.818-9.309-11.636-9.309H79.127C73.309,442.182,68.655,445.673,67.491,451.491z"/>
	<path style="fill:#DA8C36;" d="M67.491,60.509l-6.982-25.6c-1.164-8.145-2.327-15.127-2.327-23.273l0,0
		C58.182,4.655,62.836,0,69.818,0h372.364c6.982,0,11.636,4.655,11.636,11.636l0,0c0,8.145-1.164,15.127-2.327,23.273l-6.982,26.764
		c-1.164,4.655-5.818,9.309-11.636,9.309H79.127C73.309,69.818,68.655,66.327,67.491,60.509z"/>
</g>
<g>
	<polygon style="fill:#B06328;" points="418.909,69.818 407.273,69.818 407.273,81.455 418.909,81.455 418.909,442.182 
		430.545,442.182 430.545,69.818 	"/>
	<polygon style="fill:#B06328;" points="93.091,69.818 81.455,69.818 81.455,81.455 93.091,81.455 93.091,442.182 104.727,442.182 
		104.727,69.818 	"/>
</g>
<path style="fill:#ACD6F2;" d="M360.727,175.709c6.982-8.145,11.636-19.782,11.636-30.255V69.818h-23.273h-23.273H139.636v11.636
	c0,6.982,4.655,11.636,11.636,11.636h162.909c6.982,0,11.636,4.655,11.636,11.636v41.891c0,10.473-3.491,22.109-9.309,30.255
	l-33.745,54.691c-9.309,15.127-9.309,33.745,0,48.873l33.745,54.691c5.818,9.309,9.309,19.782,9.309,30.255v76.8h46.545v-75.636
	c0-11.636-4.655-22.109-11.636-30.255l-57.018-65.164c-8.145-9.309-8.145-22.109,0-30.255L360.727,175.709z"/>
<g>
	<path style="fill:#C97629;" d="M442.182,0H384c6.982,0,11.636,4.655,11.636,11.636c0,8.145-1.164,15.127-2.327,23.273l0,0
		c-3.491,13.964-16.291,23.273-30.255,23.273H67.491l1.164,2.327c0,5.818,4.655,9.309,10.473,9.309h295.564h32.582h25.6
		c5.818,0,10.473-3.491,11.636-9.309l6.982-25.6c1.164-8.145,2.327-15.127,2.327-23.273C453.818,5.818,449.164,0,442.182,0z"/>
	<path style="fill:#C97629;" d="M451.491,477.091l-6.982-26.764c-1.164-4.655-5.818-9.309-11.636-9.309h-58.182
		c5.818,0,10.473,3.491,11.636,9.309l6.982,26.764l0,0c2.327,11.636-6.982,23.273-18.618,23.273H58.182
		c0,6.982,4.655,11.636,11.636,11.636H384h34.909h23.273c6.982,0,11.636-5.818,11.636-11.636
		C453.818,492.218,452.655,485.236,451.491,477.091z"/>
</g>
<g>
	<path style="fill:#EBA553;" d="M87.273,11.636h58.182c3.491,0,5.818,2.327,5.818,5.818l0,0c0,3.491-2.327,5.818-5.818,5.818H87.273
		c-3.491,0-5.818-2.327-5.818-5.818l0,0C81.455,13.964,83.782,11.636,87.273,11.636z"/>
	<path style="fill:#EBA553;" d="M87.273,453.818h58.182c3.491,0,5.818,2.327,5.818,5.818l0,0c0,3.491-2.327,5.818-5.818,5.818
		H87.273c-3.491,0-5.818-2.327-5.818-5.818l0,0C81.455,456.145,83.782,453.818,87.273,453.818z"/>
	<path style="fill:#EBA553;" d="M168.727,11.636H192c3.491,0,5.818,2.327,5.818,5.818l0,0c0,3.491-2.327,5.818-5.818,5.818h-23.273
		c-3.491,0-5.818-2.327-5.818-5.818l0,0C162.909,13.964,165.236,11.636,168.727,11.636z"/>
</g>
<path style="fill:#F7B84E;" d="M337.455,104.727H174.545c-6.982,0-11.636,4.655-11.636,11.636v17.455
	c0,5.818,2.327,11.636,5.818,15.127l57.018,65.164c6.982,8.145,18.618,19.782,18.618,30.255v140.8
	c0,13.964-10.473,25.6-23.273,29.091c-12.8,2.327-23.273,13.964-23.273,27.927h116.364c0-13.964-9.309-25.6-23.273-27.927
	c-13.964-2.327-23.273-15.127-23.273-29.091v-140.8c0-10.473,11.636-22.109,18.618-30.255l57.018-65.164
	c3.491-4.655,5.818-9.309,5.818-15.127v-17.455C349.091,109.382,344.436,104.727,337.455,104.727z"/>
<path style="fill:#F19F35;" d="M337.455,104.727h-23.273h-69.818c0,12.8,10.473,34.909,23.273,34.909h36.073
	c8.145,0,12.8,10.473,8.145,16.291c-11.636,15.127-32.582,38.4-45.382,53.527C259.491,217.6,256,226.909,256,237.382v100.073
	c0,6.982,4.655,11.636,11.636,11.636V244.364c0-10.473,11.636-22.109,18.618-30.255l57.018-65.164
	c3.491-4.655,5.818-9.309,5.818-15.127v-17.455C349.091,109.382,344.436,104.727,337.455,104.727z"/>
<g>
</g>
<g>
</g>
<g>
</g>
<g>
</g>
<g>
</g>
<g>
</g>
<g>
</g>
<g>
</g>
<g>
</g>
<g>
</g>
<g>
</g>
<g>
</g>
<g>
</g>
<g>
</g>
<g>
</g>
</svg>
