<?xml version="1.0" encoding="iso-8859-1"?>
<!-- Generator: Adobe Illustrator 19.0.0, SVG Export Plug-In . SVG Version: 6.00 Build 0)  -->
<svg version="1.1" id="Capa_1" xmlns="http://www.w3.org/2000/svg" xmlns:xlink="http://www.w3.org/1999/xlink" x="0px" y="0px"
	 viewBox="0 0 512 512" style="enable-background:new 0 0 512 512;" xml:space="preserve">
<path style="fill:#C97629;" d="M418.909,46.545H186.182h-8.145H93.091c-12.8,0-23.273,10.473-23.273,23.273v418.909
	c0,12.8,10.473,23.273,23.273,23.273h325.818c12.8,0,23.273-10.473,23.273-23.273V69.818
	C442.182,57.018,431.709,46.545,418.909,46.545z"/>
<g>
	<path style="fill:#B06328;" d="M407.273,389.818c-2.327,3.491-4.655,5.818-6.982,9.309l-59.345,59.345
		c-11.636,11.636-27.927,18.618-45.382,18.618h48.873c6.982,0,12.8-2.327,18.618-6.982l48.873-48.873
		c4.655-4.655,6.982-11.636,6.982-18.618v-6.982v-43.055V104.727c0-6.982-4.655-11.636-11.636-11.636V389.818z"/>
	<path style="fill:#B06328;" d="M428.218,48.873c1.164,2.327,2.327,5.818,2.327,9.309v430.545c0,5.818-5.818,11.636-11.636,11.636
		H81.455c-3.491,0-6.982-1.164-9.309-2.327C75.636,506.182,83.782,512,93.091,512h325.818c12.8,0,23.273-10.473,23.273-23.273
		V69.818C442.182,60.509,436.364,52.364,428.218,48.873z"/>
	<rect x="314.182" y="46.545" style="fill:#B06328;" width="23.273" height="34.909"/>
</g>
<g>
	<path style="fill:#DA8C36;" d="M81.455,87.273v58.182c0,3.491-2.327,5.818-5.818,5.818l0,0c-3.491,0-5.818-2.327-5.818-5.818
		V87.273c0-3.491,2.327-5.818,5.818-5.818l0,0C79.127,81.455,81.455,83.782,81.455,87.273z"/>
	<path style="fill:#DA8C36;" d="M81.455,168.727v116.364c0,3.491-2.327,5.818-5.818,5.818l0,0c-3.491,0-5.818-2.327-5.818-5.818
		V168.727c0-3.491,2.327-5.818,5.818-5.818l0,0C79.127,162.909,81.455,165.236,81.455,168.727z"/>
</g>
<path style="fill:#F5F6F6;" d="M407.273,93.091v267.636c0,19.782-15.127,34.909-34.909,34.909h-34.909
	c-6.982,0-11.636,4.655-11.636,11.636v34.909c0,19.782-15.127,34.909-34.909,34.909H116.364c-6.982,0-11.636-4.655-11.636-11.636
	V93.091c0-6.982,4.655-11.636,11.636-11.636h279.273C402.618,81.455,407.273,86.109,407.273,93.091z"/>
<path style="fill:#4C9CD6;" d="M256,162.909c-38.4,0-69.818,31.418-69.818,69.818S217.6,302.545,256,302.545
	s69.818-31.418,69.818-69.818H256V162.909z"/>
<path style="fill:#F26A56;" d="M267.636,151.273v69.818h69.818C337.455,182.691,306.036,151.273,267.636,151.273z"/>
<g>
	<path style="fill:#3D545F;" d="M279.273,372.364h-69.818c-6.982,0-11.636-4.655-11.636-11.636c0-6.982,4.655-11.636,11.636-11.636
		h69.818c6.982,0,11.636,4.655,11.636,11.636C290.909,367.709,286.255,372.364,279.273,372.364z"/>
	<path style="fill:#3D545F;" d="M256,407.273h-46.545c-6.982,0-11.636-4.655-11.636-11.636c0-6.982,4.655-11.636,11.636-11.636H256
		c6.982,0,11.636,4.655,11.636,11.636C267.636,402.618,262.982,407.273,256,407.273z"/>
</g>
<circle style="fill:#70B7E5;" cx="174.545" cy="360.727" r="11.636"/>
<circle style="fill:#F26A56;" cx="174.545" cy="395.636" r="11.636"/>
<g>
	<path style="fill:#D5E3EF;" d="M407.273,360.727v15.127c0,12.8-4.655,24.436-13.964,32.582l-54.691,54.691
		c-9.309,9.309-20.945,13.964-32.582,13.964h-15.127c19.782,0,34.909-15.127,34.909-34.909v-34.909
		c0-6.982,4.655-11.636,11.636-11.636h34.909C392.145,395.636,407.273,380.509,407.273,360.727z"/>
	<path style="fill:#D5E3EF;" d="M314.182,93.091h11.636c6.982,0,11.636-4.655,11.636-11.636h-23.273V93.091z"/>
</g>
<path style="fill:#B0C4D9;" d="M289.745,25.6C285.091,10.473,272.291,0,256,0c-16.291,0-29.091,10.473-33.745,25.6l-27.927,6.982
	c-4.655,1.164-9.309,5.818-9.309,11.636v37.236c0,6.982,4.655,11.636,11.636,11.636h116.364c6.982,0,11.636-4.655,11.636-11.636
	V44.218c0-5.818-3.491-10.473-9.309-11.636L289.745,25.6z M256,46.545c-6.982,0-11.636-4.655-11.636-11.636
	S249.018,23.273,256,23.273c6.982,0,11.636,4.655,11.636,11.636S262.982,46.545,256,46.545z"/>
<path style="fill:#99B5CD;" d="M316.509,32.582l-2.327-1.164l0,0v50.036h-128c0,6.982,4.655,11.636,11.636,11.636h116.364
	c6.982,0,11.636-4.655,11.636-11.636V44.218C325.818,38.4,322.327,33.745,316.509,32.582z"/>
<path style="fill:#D5E3EF;" d="M279.273,34.909h-11.636c0,6.982-4.655,11.636-11.636,11.636v11.636
	C268.8,58.182,279.273,47.709,279.273,34.909z"/>
<path style="fill:#99B5CD;" d="M232.727,34.909h11.636c0-6.982,4.655-11.636,11.636-11.636V11.636
	C243.2,11.636,232.727,22.109,232.727,34.909z"/>
<g>
</g>
<g>
</g>
<g>
</g>
<g>
</g>
<g>
</g>
<g>
</g>
<g>
</g>
<g>
</g>
<g>
</g>
<g>
</g>
<g>
</g>
<g>
</g>
<g>
</g>
<g>
</g>
<g>
</g>
</svg>
